<svg xmlns="http://www.w3.org/2000/svg" width="19" height="19" viewBox="0 0 19 19" fill="none">
  <g clip-path="url(#clip0_410_437)">
    <path d="M13.5354 15.8576C13.4178 15.858 13.3017 15.8303 13.197 15.7767L9.44516 13.8124L5.69327 15.7767C5.57144 15.8407 5.43408 15.8693 5.29681 15.8592C5.15953 15.8491 5.02785 15.8006 4.91673 15.7194C4.80561 15.6382 4.71951 15.5274 4.66821 15.3997C4.61692 15.2719 4.60249 15.1324 4.62656 14.9968L5.36222 10.8551L2.33129 7.91241C2.23673 7.81805 2.16965 7.69971 2.13725 7.57011C2.10484 7.4405 2.10835 7.30452 2.14738 7.17675C2.19002 7.046 2.26845 6.92983 2.37378 6.8414C2.47911 6.75298 2.60711 6.69585 2.74326 6.6765L6.93654 6.0659L8.78306 2.29195C8.8433 2.16757 8.93735 2.06267 9.05445 1.98928C9.17155 1.91588 9.30696 1.87695 9.44516 1.87695C9.58335 1.87695 9.71876 1.91588 9.83586 1.98928C9.95296 2.06267 10.047 2.16757 10.1073 2.29195L11.9758 6.05854L16.1691 6.66914C16.3053 6.6885 16.4333 6.74563 16.5386 6.83405C16.6439 6.92247 16.7224 7.03865 16.765 7.16939C16.804 7.29716 16.8075 7.43314 16.7751 7.56275C16.7427 7.69235 16.6757 7.81069 16.5811 7.90506L13.5502 10.8477L14.2858 14.9895C14.3121 15.1274 14.2983 15.27 14.2462 15.4003C14.194 15.5307 14.1057 15.6434 13.9916 15.7252C13.8583 15.8185 13.6979 15.8651 13.5354 15.8576Z" fill="#FCC419"/>
  </g>
  <defs>
    <clipPath id="clip0_410_437">
      <rect width="17.6559" height="17.6559" fill="white" transform="translate(0.617203 0.40863)"/>
    </clipPath>
  </defs>
</svg>
